<svg xmlns="http://www.w3.org/2000/svg" style="display:none" aria-hidden="true">
  <symbol id="icon-mail" viewBox="0 0 24 24" fill="none" stroke="currentColor" stroke-width="1.75" stroke-linecap="round" stroke-linejoin="round">
    <rect x="3" y="5" width="18" height="14" rx="2"/><path d="M3 7l9 6 9-6"/>
  </symbol>
  <symbol id="icon-bulb" viewBox="0 0 24 24" fill="none" stroke="currentColor" stroke-width="1.75" stroke-linecap="round" stroke-linejoin="round">
    <path d="M9 18h6"/><path d="M10 22h4"/><path d="M12 2a7 7 0 0 0-4 12.7V17h8v-2.3A7 7 0 0 0 12 2z"/>
  </symbol>
  <symbol id="icon-list" viewBox="0 0 24 24" fill="none" stroke="currentColor" stroke-width="1.75" stroke-linecap="round" stroke-linejoin="round">
    <path d="M8 6h13M8 12h13M8 18h13"/><circle cx="4" cy="6" r="1" fill="currentColor" stroke="none"/><circle cx="4" cy="12" r="1" fill="currentColor" stroke="none"/><circle cx="4" cy="18" r="1" fill="currentColor" stroke="none"/>
  </symbol>
  <symbol id="icon-pen" viewBox="0 0 24 24" fill="none" stroke="currentColor" stroke-width="1.75" stroke-linecap="round" stroke-linejoin="round">
    <path d="M12 20h9"/><path d="M16.5 3.5a2.1 2.1 0 0 1 3 3L7 19l-4 1 1-4L16.5 3.5z"/>
  </symbol>
  <symbol id="icon-plane" viewBox="0 0 24 24" fill="none" stroke="currentColor" stroke-width="1.75" stroke-linecap="round" stroke-linejoin="round">
    <path d="M17.8 19.2L16 11l3.5-3.5C21 6 21.5 4 19 4c-2 0-3.5 1.5-5.5 3.5L10 11 1.8 12.8c-.5.1-.9.7-.7 1.2l8.5 2.5 2.5 8.5c.5.7 1.2.5 1.2-.7z"/>
  </symbol>
  <symbol id="icon-wallet" viewBox="0 0 24 24" fill="none" stroke="currentColor" stroke-width="1.75" stroke-linecap="round" stroke-linejoin="round">
    <path d="M19 7V5a2 2 0 0 0-2-2H5a2 2 0 0 0-2 2v14a2 2 0 0 0 2 2h14a2 2 0 0 0 2-2v-2"/><path d="M3 7h18"/><circle cx="17" cy="14" r="1" fill="currentColor" stroke="none"/>
  </symbol>
  <symbol id="icon-globe" viewBox="0 0 24 24" fill="none" stroke="currentColor" stroke-width="1.75" stroke-linecap="round" stroke-linejoin="round">
    <circle cx="12" cy="12" r="10"/><path d="M2 12h20"/><path d="M12 2a15.3 15.3 0 0 1 4 10 15.3 15.3 0 0 1-4 10 15.3 15.3 0 0 1-4-10 15.3 15.3 0 0 1 4-10z"/>
  </symbol>
  <symbol id="icon-search" viewBox="0 0 24 24" fill="none" stroke="currentColor" stroke-width="1.75" stroke-linecap="round" stroke-linejoin="round">
    <circle cx="11" cy="11" r="7"/><path d="M20 20l-3-3"/>
  </symbol>
  <symbol id="icon-chat" viewBox="0 0 24 24" fill="none" stroke="currentColor" stroke-width="1.75" stroke-linecap="round" stroke-linejoin="round">
    <path d="M21 15a2 2 0 0 1-2 2H7l-4 4V5a2 2 0 0 1 2-2h14a2 2 0 0 1 2 2z"/>
  </symbol>
  <symbol id="icon-help" viewBox="0 0 24 24" fill="none" stroke="currentColor" stroke-width="1.75" stroke-linecap="round" stroke-linejoin="round">
    <circle cx="12" cy="12" r="10"/><path d="M9.1 9a3 3 0 0 1 5.3 1.5c0 2-3 2-3 4"/><circle cx="12" cy="17" r="0.5" fill="currentColor" stroke="none"/>
  </symbol>
  <symbol id="icon-briefcase" viewBox="0 0 24 24" fill="none" stroke="currentColor" stroke-width="1.75" stroke-linecap="round" stroke-linejoin="round">
    <rect x="2" y="7" width="20" height="14" rx="2"/><path d="M16 7V5a2 2 0 0 0-2-2h-4a2 2 0 0 0-2 2v2"/>
  </symbol>
  <symbol id="icon-home" viewBox="0 0 24 24" fill="none" stroke="currentColor" stroke-width="1.75" stroke-linecap="round" stroke-linejoin="round">
    <path d="M3 10.5L12 3l9 7.5"/><path d="M5 10v10h14V10"/>
  </symbol>
</svg>
